<svg width="340" height="222" viewBox="0 0 340 222" fill="none" xmlns="http://www.w3.org/2000/svg">
<path d="M55.6743 219.294H41.0614C33.6306 206.509 28.3719 198.685 27.811 173.529C27.2479 148.277 50.0807 115.08 53.2074 104.242C56.2913 93.5564 46.5214 73.6919 47.4829 62.4171C49.6045 37.5328 67.3877 18.7777 89.0757 13.8124C93.6389 12.7681 98.2832 12.2815 102.96 12.2815C117.891 12.2815 133.122 17.2505 146.823 24.9137C160.042 32.3066 172.83 42.392 187.348 43.8633C188.655 43.9954 189.954 44.0555 191.25 44.0555C199.832 44.055 208.218 41.4295 216.664 39.8578C221.893 38.8846 227.288 38.3694 232.709 38.3694C251.349 38.3694 270.301 44.4585 283.862 58.9326C295.098 70.9245 301.586 87.7036 302.935 104.455C303.922 116.725 302.588 130.267 298.539 141.527C296.651 146.78 293.518 151.781 290.811 156.807L286.824 143.224C285.928 137.59 282.365 133.027 277.695 131.331C278.133 129.167 278.555 126.977 278.924 124.742C280.838 113.181 280.201 100.086 277.799 88.7227C276.677 83.4215 275.057 78.2549 272.977 73.3993L273.218 71.7911C273.552 69.5572 272.942 67.3755 271.741 65.8886C271.172 60.9978 267.815 57.4177 263.925 57.4177C263.764 57.4177 263.603 57.4241 263.442 57.4363C261.194 54.6956 258.737 52.2246 256.081 50.0875C247.409 43.1098 237.256 40.1198 226.901 40.1198C217.006 40.1198 206.927 42.8483 197.774 47.4348C189.927 51.3661 182.328 56.5972 173.926 57.9204C172.419 58.158 170.915 58.2658 169.418 58.2658C158.735 58.2663 148.274 52.7612 137.804 49.2879C130.364 46.8199 122.59 45.3973 114.878 45.3973C105.743 45.3973 96.6938 47.3914 88.3796 52.0057C70.9941 61.6542 58.6325 83.4333 60.0772 107.422C60.7313 118.291 64.0788 129.017 62.8941 139.815C61.6919 150.767 56.4867 159.928 53.7308 170.242C51.1017 180.082 50.1427 193.153 51.869 205.008L51.8074 205.344C50.8564 210.521 52.4161 215.687 55.4883 218.848C55.5499 218.998 55.6113 219.146 55.6743 219.294Z" fill="#E5EDF9"/>
<path d="M16.6479 120.927C10.7768 120.927 4.98329 114.24 2.01837 106.983C-2.60735 95.6597 0.987376 81.7943 10.0473 76.0126C13.6943 73.6861 18.6912 72.3726 23.6615 72.3726C31.0393 72.3726 38.3592 75.2652 41.1229 82.0303C45.7485 93.3536 31.8034 103.021 26.1054 113.553C23.2516 118.827 19.9374 120.927 16.6479 120.927Z" fill="#DDE6F6"/>
<path d="M310.809 174.363C307.791 174.363 304.858 173.28 302.916 170.65C298.486 164.648 304.493 157.123 305.843 150.198C306.645 146.081 308.554 144.495 310.824 144.495C313.875 144.495 317.581 147.366 320.122 150.809C324.554 156.811 324.915 165.404 320.928 170C318.688 172.583 314.679 174.363 310.809 174.363Z" fill="#DDE6F6"/>
<path d="M292.367 44.1746C288.09 44.1746 284.168 36.4189 279.999 32.9989C273.224 27.438 277.676 19.1389 282.816 15.7474C284.382 14.7141 286.065 14.2239 287.721 14.2239C291.501 14.2239 295.151 16.7732 297.038 21.24C299.753 27.6648 299.669 40.0862 294.529 43.4784C293.797 43.9607 293.077 44.1746 292.367 44.1746Z" fill="#DDE6F6"/>
<path d="M55.9461 219.294H55.6739C55.6108 219.146 55.5494 218.998 55.4879 218.848C55.6371 219.002 55.7899 219.15 55.9461 219.294ZM51.8686 205.008C50.1423 193.153 51.1013 180.082 53.7303 170.242C56.4862 159.928 61.6915 150.767 62.8936 139.815C64.0784 129.017 60.7308 118.291 60.0767 107.421C58.6321 83.4333 70.9936 61.6542 88.3791 52.0057C96.6933 47.3915 105.742 45.3974 114.877 45.3974C122.589 45.3974 130.364 46.82 137.803 49.2879C148.273 52.7612 158.735 58.2663 169.417 58.2658C170.915 58.2658 172.418 58.158 173.925 57.9204C182.328 56.5972 189.927 51.3661 197.774 47.4348C206.927 42.8483 217.006 40.1199 226.9 40.1199C237.255 40.1199 247.408 43.1099 256.081 50.0876C258.736 52.2246 261.194 54.6957 263.44 57.4364C263.303 57.4471 263.166 57.4619 263.028 57.481C261.898 57.641 260.851 58.0966 259.929 58.7703C258.689 56.2353 256.46 54.5883 253.986 54.5883C253.725 54.5883 253.46 54.6064 253.195 54.6442C251.604 54.8687 250.205 55.7517 249.136 57.0436C247.892 56.2631 246.495 55.8249 245.032 55.8249C244.692 55.8249 244.345 55.8486 243.998 55.898C238.954 56.611 235.328 62.2981 235.899 68.6008C236.166 71.5487 237.306 74.1054 238.956 75.9226L237.088 88.3916C236.858 89.932 237.076 91.4474 237.626 92.7273L236.592 99.6356C236.123 102.773 236.639 105.851 237.853 108.392C237.855 108.399 237.859 108.406 237.861 108.414C239.073 112.144 241.667 115.085 245.01 116.045V130.362L221.977 130.472C217.689 127.182 212.75 125.139 207.622 124.148L210.463 111.795C210.463 111.795 210.463 111.793 210.465 111.792C210.559 111.378 213.129 100.207 213.355 99.2247C213.355 99.2227 213.355 99.2214 213.355 99.2196L213.357 99.216V99.2114C213.357 99.2109 213.357 99.2097 213.357 99.2091L213.359 99.1997L213.361 99.1931C213.361 99.1918 213.363 99.1905 213.363 99.1893V99.1824L213.372 99.1559L213.341 99.1243C213.663 98.3333 214.502 96.6413 216.213 95.1493C219.172 92.5692 219.525 88.2945 219.525 88.2945C221.106 86.3822 222.888 84.7511 224.502 82.8835C224.671 82.6885 224.846 82.4751 224.895 82.195C224.95 81.8827 224.834 81.5628 224.689 81.2982C224.153 80.3028 223.325 79.857 222.464 79.857C221.989 79.857 221.506 79.9921 221.053 80.245C220.308 80.6623 219.641 81.2559 219.015 81.9087C218.719 82.2179 217.708 83.0688 217.4 83.6354L223.111 68.3946C223.619 67.0408 223.286 65.4964 222.374 64.9626C222.16 64.8374 221.934 64.7786 221.705 64.7786C221.444 64.7786 221.181 64.8555 220.93 64.9993C220.635 65.1703 220.363 65.4454 220.137 65.79C220.155 65.6778 220.163 65.6123 220.163 65.6123C219.309 64.7123 218.426 64.3192 217.539 64.3192C211.495 64.3192 205.221 82.5098 205.221 82.5098L202.879 89.4176L187.46 125.147C184.56 125.811 181.654 126.438 178.703 126.438C178.039 126.438 177.373 126.406 176.704 126.336C169.266 125.556 162.714 120.212 155.942 116.294C154.842 115.658 153.722 115.056 152.586 114.495L144.12 94.8756L141.777 87.9677C141.777 87.9677 135.502 69.7772 129.461 69.7772C128.573 69.7772 127.691 70.1697 126.834 71.0703C126.834 71.0703 126.844 71.1366 126.862 71.248C126.635 70.9036 126.364 70.6288 126.067 70.4573C125.818 70.3135 125.555 70.2365 125.294 70.2365C125.065 70.2365 124.838 70.2962 124.625 70.4205C123.712 70.9548 123.38 72.4995 123.887 73.8526L129.598 89.0934C129.292 88.5267 128.28 87.6764 127.983 87.3672C127.358 86.7146 126.691 86.1207 125.945 85.7029C125.494 85.4501 125.009 85.315 124.535 85.315C123.673 85.315 122.846 85.7613 122.308 86.7562C122.165 87.0213 122.049 87.3407 122.104 87.6529C122.154 87.9331 122.329 88.1469 122.497 88.3414C124.111 90.2096 125.892 91.841 127.473 93.7525C127.473 93.7525 127.826 98.0272 130.786 100.607C131.637 101.349 132.271 102.139 132.734 102.845H132.733C132.734 102.846 132.736 102.847 132.737 102.849C132.916 103.122 133.069 103.383 133.199 103.622C133.36 103.959 133.518 104.358 133.671 104.8L134.781 109.627C134.344 109.61 133.907 109.601 133.471 109.601C131.074 109.601 128.695 109.859 126.357 110.413C121.387 111.589 116.817 114.229 113.187 117.966L111.02 99.5326C110.651 96.3958 109.922 93.4387 108.9 90.7079L110.727 90.3409C110.727 90.3409 109.701 71.7965 94.6174 71.7965C92.8161 71.7965 90.816 72.0606 88.5912 72.6525C87.7338 72.5416 86.866 72.4853 85.9902 72.4853C84.7686 72.4853 83.5322 72.5956 82.2881 72.8243C72.1576 74.6843 65.1516 86.4554 66.6403 99.1161L68.6022 115.804C69.8912 126.771 77.1314 134.807 85.6296 135.553V136.078H77.2682C72.001 136.078 67.5088 140.211 65.7476 146.023L65.7452 146.021L65.7084 146.147L65.6907 146.208L55.3732 181.357L56.1915 181.482L53.2215 197.646L53.0964 197.717C53.0964 197.717 53.1376 197.702 53.2166 197.673L51.8686 205.008ZM52.9339 198.748C52.918 198.845 52.908 198.907 52.9035 198.939C52.9096 198.901 52.92 198.834 52.9339 198.748C52.9363 198.73 52.9398 198.71 52.9426 198.689C52.9398 198.71 52.9363 198.729 52.9339 198.748ZM52.9987 198.335C52.979 198.46 52.9596 198.583 52.9426 198.689C52.9571 198.599 52.9759 198.48 52.9987 198.335ZM53.0964 197.717C53.0964 197.717 53.0479 198.024 52.9987 198.335C53.0257 198.166 53.0562 197.972 53.0964 197.717ZM101.882 136.088C101.764 136.085 101.647 136.078 101.527 136.078H100.793V133.312L105.584 132.432C105.341 133.611 105.163 134.824 105.057 136.064L101.881 136.078L101.882 136.088ZM277.694 131.331C276.422 130.868 275.065 130.619 273.66 130.619L262.565 130.509V114.009C263.799 112.32 264.684 110.198 265.045 107.786L265.667 103.638L266.15 103.751C266.479 103.827 266.803 103.864 267.125 103.864C269.63 103.864 271.873 101.627 272.351 98.4455L272.406 98.0817C272.797 95.4731 271.894 92.9195 270.27 91.4596L272.977 73.3993C275.057 78.255 276.677 83.4216 277.798 88.7228C280.201 100.086 280.837 113.181 278.924 124.742C278.555 126.977 278.133 129.167 277.694 131.331Z" fill="#CCD9F1"/>
<path d="M221.361 219.294H117.245L119.274 187.666C121.466 185.17 122.825 182.241 121.669 179.207C121.548 178.886 121.354 178.632 121.121 178.454C121.079 178.377 121.045 178.301 121 178.223C121 178.223 120.912 178.237 120.766 178.26C120.628 178.209 120.485 178.181 120.339 178.181C120.304 178.181 120.268 178.183 120.233 178.186C120.124 178.196 120.006 178.208 119.88 178.221L120.978 161.104H121.247H130.315H147.194H153.557C155.531 161.104 157.38 160.441 158.974 159.29C159.051 159.246 159.128 159.205 159.204 159.159C164.631 155.852 166.797 147.593 163.987 140.913L152.587 114.495C153.722 115.056 154.842 115.658 155.943 116.295C162.715 120.212 169.266 125.556 176.704 126.336C177.373 126.406 178.039 126.438 178.703 126.438C181.654 126.438 184.56 125.811 187.46 125.147L183.012 135.455C180.203 142.134 182.368 150.394 187.796 153.701C187.874 153.749 187.953 153.791 188.031 153.835C189.624 154.985 191.471 155.645 193.442 155.645H199.806H216.684H226.052L221.361 219.294ZM130.315 136.078V135.955L130.046 135.956V135.955L105.058 136.064C105.164 134.824 105.341 133.611 105.585 132.432L112.611 131.142C113.76 130.931 114.555 129.596 114.386 128.161L113.187 117.966C116.818 114.229 121.388 111.59 126.357 110.413C128.695 109.859 131.075 109.601 133.471 109.601C133.907 109.601 134.344 109.61 134.781 109.627L140.808 135.831C138.335 135.833 137.322 135.93 135.711 135.988L133.175 136.03C133.172 136.03 133.167 136.03 133.164 136.03L130.315 136.078ZM216.713 130.497L213.867 130.483V130.482C213.861 130.482 213.855 130.482 213.849 130.482L212.336 130.475C210.035 130.451 209.011 130.376 206.19 130.373L206.174 130.444L206.19 130.373L207.622 124.148C212.75 125.139 217.692 127.182 221.977 130.472L216.713 130.497Z" fill="#BACAEC"/>
<path d="M336.977 221.236H14.5558C14.1228 221.236 13.772 220.798 13.772 220.257C13.772 219.716 14.1228 219.277 14.5558 219.277H336.977C337.41 219.277 337.76 219.716 337.76 220.257C337.76 220.798 337.41 221.236 336.977 221.236Z" fill="#A9BDE6"/>
<path d="M326.908 128.494C326.908 130.034 325.911 131.283 324.677 131.283C323.445 131.283 322.445 130.034 322.445 128.494C322.445 126.953 323.445 125.705 324.677 125.705C325.911 125.705 326.908 126.953 326.908 128.494Z" fill="#1A1C44"/>
<path d="M310.542 205.969C310.542 207.167 309.765 208.139 308.807 208.139C307.85 208.139 307.071 207.167 307.071 205.969C307.071 204.771 307.85 203.8 308.807 203.8C309.765 203.8 310.542 204.771 310.542 205.969Z" fill="#5460B6"/>
<path d="M41.7479 31.8052C41.7479 33.3454 40.7489 34.5944 39.5164 34.5944C38.2839 34.5944 37.2847 33.3454 37.2847 31.8052C37.2847 30.2644 38.2839 29.0161 39.5164 29.0161C40.7489 29.0161 41.7479 30.2644 41.7479 31.8052Z" fill="#5460B6"/>
<path d="M18.5124 197.866C18.5124 199.502 17.4512 200.829 16.1422 200.829C14.833 200.829 13.772 199.502 13.772 197.866C13.772 196.23 14.833 194.904 16.1422 194.904C17.4512 194.904 18.5124 196.23 18.5124 197.866Z" fill="#1A1C44"/>
<path d="M25.8785 45.4409C25.8785 45.9542 25.5456 46.3707 25.1345 46.3707C24.7235 46.3707 24.3906 45.9542 24.3906 45.4409C24.3906 44.9272 24.7235 44.5112 25.1345 44.5112C25.5456 44.5112 25.8785 44.9272 25.8785 45.4409Z" fill="#1A1C44"/>
<path d="M215.328 9.45652C214.641 13.4784 211.475 16.0424 208.257 15.1834C205.038 14.3244 202.987 10.3675 203.674 6.34575C204.361 2.32447 207.529 -0.239637 210.745 0.619407C213.963 1.47781 216.015 5.43463 215.328 9.45652Z" fill="#5460B6"/>
<path d="M309.306 20.6141C309.098 21.8351 308.136 22.6136 307.159 22.3533C306.182 22.0923 305.56 20.8907 305.768 19.669C305.976 18.448 306.938 17.6695 307.915 17.9305C308.892 18.1916 309.514 19.3927 309.306 20.6141Z" fill="#F9AB34"/>
<path d="M76.2859 6.22487C76.077 7.4466 75.116 8.22507 74.1384 7.96456C73.161 7.70379 72.5382 6.50193 72.7468 5.28092C72.9557 4.05929 73.9167 3.28082 74.8943 3.54113C75.8717 3.80207 76.4946 5.00386 76.2859 6.22487Z" fill="#F9AB34"/>
<path d="M324.216 71.524C324.008 72.745 323.045 73.5234 322.068 73.2632C321.091 73.0022 320.467 71.8006 320.677 70.5796C320.885 69.3579 321.846 68.5794 322.823 68.8397C323.802 69.1007 324.424 70.3025 324.216 71.524Z" fill="#5460B6"/>
<path d="M193.957 16.5437C193.793 17.5014 193.039 18.1119 192.273 17.9075C191.506 17.7028 191.018 16.7609 191.181 15.8032C191.345 14.8451 192.099 14.2346 192.865 14.4395C193.632 14.6442 194.12 15.5863 193.957 16.5437Z" fill="#1A1C44"/>
<path d="M199.702 52.8969C199.702 72.5694 186.942 88.5169 171.201 88.5169C155.461 88.5169 142.7 72.5694 142.7 52.8969C142.7 33.225 155.461 17.2771 171.201 17.2771C186.942 17.2771 199.702 33.225 199.702 52.8969Z" fill="#1C1B21"/>
<path d="M196.696 49.1405C196.696 68.813 183.936 84.7605 168.195 84.7605C152.455 84.7605 139.694 68.813 139.694 49.1405C139.694 29.4687 152.455 13.5212 168.195 13.5212C183.936 13.5212 196.696 29.4687 196.696 49.1405Z" fill="#F9AB34"/>
<path d="M168.196 22.381C156.359 22.381 146.729 34.4164 146.729 49.2097C146.729 64.0032 156.359 76.0384 168.196 76.0384C180.032 76.0384 189.662 64.0032 189.662 49.2097C189.662 34.4164 180.032 22.381 168.196 22.381ZM168.196 77.8979C155.538 77.8979 145.241 65.0282 145.241 49.2097C145.241 33.3912 155.538 20.5217 168.196 20.5217C180.853 20.5217 191.15 33.3912 191.15 49.2097C191.15 65.0282 180.853 77.8979 168.196 77.8979Z" fill="#FCF2E3"/>
<path d="M169.789 56.992C171.352 56.6897 172.134 55.809 172.134 54.3499V54.2668C172.134 53.5516 171.969 52.9666 171.639 52.5121C171.308 52.0579 170.692 51.6245 169.789 51.2118V56.992ZM166.683 38.454C165.891 38.5921 165.313 38.8878 164.949 39.3413C164.586 39.7958 164.404 40.353 164.404 41.0137V41.0961C164.404 41.7302 164.558 42.2732 164.866 42.7267C165.174 43.1817 165.78 43.615 166.683 44.0277V38.454ZM166.518 62.0702C165.086 61.8507 163.704 61.4033 162.372 60.7289C161.039 60.0547 159.823 59.1949 158.722 58.148L161.299 53.4412C162.201 54.2946 163.077 55.0038 163.925 55.5679C164.773 56.1325 165.692 56.5378 166.683 56.7858V50.2208C165.494 49.8081 164.453 49.3544 163.561 48.8586C162.67 48.3625 161.931 47.7714 161.348 47.0834C160.764 46.3955 160.324 45.5902 160.026 44.668C159.729 43.7458 159.581 42.6798 159.581 41.468V41.3856C159.581 40.2296 159.746 39.1833 160.076 38.2475C160.406 37.3123 160.874 36.4997 161.48 35.8117C162.086 35.1242 162.818 34.5665 163.677 34.1395C164.536 33.7131 165.483 33.4309 166.518 33.2927V30.8984H169.954V33.3758C171.143 33.5966 172.238 33.9608 173.241 34.4699C174.243 34.9792 175.195 35.6332 176.099 36.4308L173.885 41.2615C173.225 40.7111 172.552 40.2228 171.87 39.7958C171.187 39.3693 170.494 39.0464 169.789 38.8251V45.0598C172.3 45.9137 174.121 47.0281 175.256 48.4041C176.391 49.7813 176.958 51.6245 176.958 53.9365V54.0196C176.958 55.1756 176.786 56.2217 176.446 57.1569C176.104 58.0934 175.63 58.9056 175.025 59.5935C174.419 60.2815 173.687 60.8461 172.828 61.2861C171.969 61.7268 171.011 62.0156 169.954 62.1533V66.2409H166.518V62.0702Z" fill="#1C1B21"/>
<path d="M199.702 52.8969C199.702 72.5694 186.942 88.5169 171.201 88.5169C155.461 88.5169 142.7 72.5694 142.7 52.8969C142.7 33.225 155.461 17.2771 171.201 17.2771C186.942 17.2771 199.702 33.225 199.702 52.8969Z" fill="#1C1B21"/>
<path d="M196.696 49.1405C196.696 68.813 183.936 84.7605 168.195 84.7605C152.455 84.7605 139.694 68.813 139.694 49.1405C139.694 29.4687 152.455 13.5212 168.195 13.5212C183.936 13.5212 196.696 29.4687 196.696 49.1405Z" fill="#F9AB34"/>
<path d="M168.196 22.381C156.359 22.381 146.729 34.4164 146.729 49.2097C146.729 64.0032 156.359 76.0384 168.196 76.0384C180.032 76.0384 189.662 64.0032 189.662 49.2097C189.662 34.4164 180.032 22.381 168.196 22.381ZM168.196 77.8979C155.538 77.8979 145.241 65.0282 145.241 49.2097C145.241 33.3912 155.538 20.5217 168.196 20.5217C180.853 20.5217 191.15 33.3912 191.15 49.2097C191.15 65.0282 180.853 77.8979 168.196 77.8979Z" fill="#FCF2E3"/>
<path d="M152.693 32.6548C152.693 41.5557 146.92 48.7723 139.798 48.7723C132.675 48.7723 126.901 41.5557 126.901 32.6548C126.901 23.7534 132.675 16.5376 139.798 16.5376C146.92 16.5376 152.693 23.7534 152.693 32.6548Z" fill="#1C1B21"/>
<path d="M151.333 30.9551C151.333 39.8565 145.56 47.0722 138.437 47.0722C131.315 47.0722 125.542 39.8565 125.542 30.9551C125.542 22.0539 131.315 14.8384 138.437 14.8384C145.56 14.8384 151.333 22.0539 151.333 30.9551Z" fill="#F9AB34"/>
<path d="M138.438 18.847C133.082 18.847 128.724 24.2925 128.724 30.9865C128.724 37.6797 133.082 43.126 138.438 43.126C143.794 43.126 148.151 37.6797 148.151 30.9865C148.151 24.2925 143.794 18.847 138.438 18.847ZM138.438 43.9669C132.711 43.9669 128.051 38.1439 128.051 30.9865C128.051 23.8291 132.711 18.0059 138.438 18.0059C144.165 18.0059 148.824 23.8291 148.824 30.9865C148.824 38.1439 144.165 43.9669 138.438 43.9669Z" fill="#FCF2E3"/>
<path d="M123.873 59.8956C123.873 56.0305 121.365 52.897 118.272 52.897C121.365 52.897 123.873 49.7633 123.873 45.8982C123.873 49.7633 126.38 52.897 129.472 52.897C126.38 52.897 123.873 56.0305 123.873 59.8956Z" fill="white"/>
<path d="M189.662 95.0844C189.662 92.2456 187.821 89.9438 185.549 89.9438C187.821 89.9438 189.662 87.6423 189.662 84.8037C189.662 87.6423 191.504 89.9438 193.775 89.9438C191.504 89.9438 189.662 92.2456 189.662 95.0844Z" fill="white"/>
<path d="M162.78 119.839C162.78 114.619 159.394 110.387 155.217 110.387C159.394 110.387 162.78 106.155 162.78 100.935C162.78 106.155 166.166 110.387 170.342 110.387C166.166 110.387 162.78 114.619 162.78 119.839Z" fill="white"/>
<path d="M188.889 46.9134C188.889 42.0221 185.716 38.0566 181.802 38.0566C185.716 38.0566 188.889 34.0905 188.889 29.199C188.889 34.0905 192.062 38.0566 195.977 38.0566C192.062 38.0566 188.889 42.0221 188.889 46.9134Z" fill="#FCF2E3"/>
<path d="M212.58 52.8969C212.58 50.199 210.83 48.0117 208.67 48.0117C210.83 48.0117 212.58 45.8239 212.58 43.1257C212.58 45.8239 214.33 48.0117 216.49 48.0117C214.33 48.0117 212.58 50.199 212.58 52.8969Z" fill="white"/>
<path d="M92.7881 36.5952H49.2453C44.767 36.5952 41.1367 41.1327 41.1367 46.7293C41.1367 52.3262 44.767 56.8637 49.2453 56.8637H85.1295L90.0669 62.4861V56.8637H92.7881C97.2665 56.8637 100.897 52.3262 100.897 46.7293C100.897 41.1327 97.2665 36.5952 92.7881 36.5952Z" fill="#5460B6"/>
<path d="M53.1712 45.3325C53.739 44.7437 54.101 43.8549 54.101 42.8608C54.101 41.0864 52.9501 39.6477 51.5301 39.6477C50.1108 39.6477 48.9598 41.0864 48.9598 42.8608C48.9598 43.8549 49.3214 44.7437 49.8891 45.3325C48.0661 46.1691 46.7632 48.3521 46.7632 50.9208C46.7632 54.211 56.2975 54.211 56.2975 50.9208C56.2975 48.3521 54.9942 46.1691 53.1712 45.3325Z" fill="#F9AB34"/>
<path d="M93.3327 42.0438H62.1323C61.9954 42.0438 61.8843 41.9048 61.8843 41.7338C61.8843 41.5622 61.9954 41.4238 62.1323 41.4238H93.3327C93.4701 41.4238 93.5807 41.5622 93.5807 41.7338C93.5807 41.9048 93.4701 42.0438 93.3327 42.0438Z" fill="white"/>
<path d="M88.4926 51.1931H62.1323C61.9954 51.1931 61.8843 51.0545 61.8843 50.8834C61.8843 50.7116 61.9954 50.5735 62.1323 50.5735H88.4926C88.6298 50.5735 88.7404 50.7116 88.7404 50.8834C88.7404 51.0545 88.6298 51.1931 88.4926 51.1931Z" fill="white"/>
<path d="M81.3138 46.908H62.1323C61.9954 46.908 61.8843 46.7691 61.8843 46.5981C61.8843 46.427 61.9954 46.2881 62.1323 46.2881H81.3138C81.4507 46.2881 81.5619 46.427 81.5619 46.5981C81.5619 46.7691 81.4507 46.908 81.3138 46.908Z" fill="white"/>
<path d="M93.3325 46.908H83.706C83.5688 46.908 83.458 46.7691 83.458 46.5981C83.458 46.427 83.5688 46.2881 83.706 46.2881H93.3325C93.47 46.2881 93.5805 46.427 93.5805 46.5981C93.5805 46.7691 93.47 46.908 93.3325 46.908Z" fill="white"/>
<path d="M54.6148 49.996C54.4243 49.996 54.2338 49.9055 54.0886 49.7238L52.2199 47.3884C51.9293 47.0254 51.9293 46.4366 52.2199 46.0738C52.5106 45.7106 52.9811 45.7106 53.2718 46.0738L54.6148 47.7516L58.2223 43.2426C58.5129 42.8794 58.9834 42.8794 59.2741 43.2426C59.5647 43.6059 59.5647 44.1947 59.2741 44.5579L55.1404 49.7238C54.9952 49.9055 54.8047 49.996 54.6148 49.996Z" fill="white"/>
<path d="M286.991 89.3723H331.664C336.259 89.3723 339.984 94.0276 339.984 99.7695C339.984 105.512 336.259 110.166 331.664 110.166H294.847L289.781 115.935V110.166H286.991C282.396 110.166 278.671 105.512 278.671 99.7695C278.671 94.0276 282.396 89.3723 286.991 89.3723Z" fill="#F9AB34"/>
<path d="M330.665 98.241C331.232 97.6517 331.595 96.7636 331.595 95.7687C331.595 93.9943 330.442 92.5562 329.023 92.5562C327.603 92.5562 326.453 93.9943 326.453 95.7687C326.453 96.7636 326.814 97.6517 327.383 98.241C325.56 99.0779 324.256 101.261 324.256 103.829C324.256 107.12 333.789 107.12 333.789 103.829C333.789 101.261 332.488 99.0779 330.665 98.241Z" fill="#5460B6"/>
<path d="M334.579 100.029H333.349V98.4898C333.349 98.3231 333.241 98.188 333.106 98.188H331.982C331.85 98.188 331.742 98.3231 331.742 98.4898V100.029H330.51C330.377 100.029 330.269 100.164 330.269 100.331V101.735C330.269 101.902 330.377 102.038 330.51 102.038H331.742V103.576C331.742 103.743 331.85 103.878 331.982 103.878H333.106C333.241 103.878 333.349 103.743 333.349 103.576V102.038H334.579C334.713 102.038 334.821 101.902 334.821 101.735V100.331C334.821 100.164 334.713 100.029 334.579 100.029Z" fill="white"/>
<path d="M320.355 95.5717H289.155C289.016 95.5717 288.906 95.4333 288.906 95.2617C288.906 95.0906 289.016 94.9517 289.155 94.9517H320.355C320.491 94.9517 320.604 95.0906 320.604 95.2617C320.604 95.4333 320.491 95.5717 320.355 95.5717Z" fill="white"/>
<path d="M315.515 104.721H289.155C289.016 104.721 288.906 104.583 288.906 104.412C288.906 104.24 289.016 104.102 289.155 104.102H315.515C315.651 104.102 315.762 104.24 315.762 104.412C315.762 104.583 315.651 104.721 315.515 104.721Z" fill="white"/>
<path d="M308.335 100.436H289.155C289.016 100.436 288.906 100.297 288.906 100.126C288.906 99.9548 289.016 99.8159 289.155 99.8159H308.335C308.472 99.8159 308.584 99.9548 308.584 100.126C308.584 100.297 308.472 100.436 308.335 100.436Z" fill="white"/>
<path d="M320.355 100.436H310.728C310.589 100.436 310.479 100.297 310.479 100.126C310.479 99.9548 310.589 99.8159 310.728 99.8159H320.355C320.491 99.8159 320.601 99.9548 320.601 100.126C320.601 100.297 320.491 100.436 320.355 100.436Z" fill="white"/>
<path d="M230.835 29.4326H261.61C264.776 29.4326 267.341 32.6395 267.341 36.5951C267.341 40.5512 264.776 43.7581 261.61 43.7581H232.758H230.835C227.669 43.7581 225.104 40.5512 225.104 36.5951C225.104 32.6395 227.669 29.4326 230.835 29.4326Z" fill="#5460B6"/>
<path d="M258.137 34.2394H234.276C234.139 34.2394 234.027 34.1004 234.027 33.9294C234.027 33.7583 234.139 33.6194 234.276 33.6194H258.137C258.274 33.6194 258.384 33.7583 258.384 33.9294C258.384 34.1004 258.274 34.2394 258.137 34.2394Z" fill="white"/>
<path d="M254.435 39.6575H234.276C234.139 39.6575 234.027 39.5191 234.027 39.3476C234.027 39.1765 234.139 39.0376 234.276 39.0376H254.435C254.572 39.0376 254.682 39.1765 254.682 39.3476C254.682 39.5191 254.572 39.6575 254.435 39.6575Z" fill="white"/>
<path d="M248.944 37.1199H234.276C234.139 37.1199 234.027 36.9812 234.027 36.8102C234.027 36.6384 234.139 36.5002 234.276 36.5002H248.944C249.083 36.5002 249.193 36.6384 249.193 36.8102C249.193 36.9812 249.083 37.1199 248.944 37.1199Z" fill="white"/>
<path d="M258.137 37.1199H250.774C250.637 37.1199 250.527 36.9812 250.527 36.8102C250.527 36.6384 250.637 36.5002 250.774 36.5002H258.137C258.274 36.5002 258.384 36.6384 258.384 36.8102C258.384 36.9812 258.274 37.1199 258.137 37.1199Z" fill="white"/>
<path d="M22.257 130.975H49.6212C52.4357 130.975 54.7169 133.827 54.7169 137.344C54.7169 140.861 52.4357 143.713 49.6212 143.713H23.967H22.257C19.4424 143.713 17.1611 140.861 17.1611 137.344C17.1611 133.827 19.4424 130.975 22.257 130.975Z" fill="#F9AB34"/>
<path d="M46.5324 135.284H25.3164C25.1795 135.284 25.0684 135.145 25.0684 134.974C25.0684 134.802 25.1795 134.664 25.3164 134.664H46.5324C46.6695 134.664 46.7805 134.802 46.7805 134.974C46.7805 135.145 46.6695 135.284 46.5324 135.284Z" fill="white"/>
<path d="M43.2409 140.102H25.3164C25.1795 140.102 25.0684 139.963 25.0684 139.792C25.0684 139.621 25.1795 139.482 25.3164 139.482H43.2409C43.378 139.482 43.4887 139.621 43.4887 139.792C43.4887 139.963 43.378 140.102 43.2409 140.102Z" fill="white"/>
<path d="M38.3596 137.844H25.3164C25.1795 137.844 25.0684 137.706 25.0684 137.535C25.0684 137.363 25.1795 137.225 25.3164 137.225H38.3596C38.4966 137.225 38.6076 137.363 38.6076 137.535C38.6076 137.706 38.4966 137.844 38.3596 137.844Z" fill="white"/>
<path d="M46.5323 137.844H39.9863C39.8494 137.844 39.7383 137.706 39.7383 137.535C39.7383 137.363 39.8494 137.225 39.9863 137.225H46.5323C46.6696 137.225 46.7804 137.363 46.7804 137.535C46.7804 137.706 46.6696 137.844 46.5323 137.844Z" fill="white"/>
<path d="M224.506 165.413H175.888C175.75 165.413 175.64 165.274 175.64 165.103C175.64 164.932 175.75 164.793 175.888 164.793H224.506C224.642 164.793 224.755 164.932 224.755 165.103C224.755 165.274 224.642 165.413 224.506 165.413Z" fill="white"/>
<path d="M224.506 179.671H183.431C183.294 179.671 183.183 179.532 183.183 179.361C183.183 179.189 183.294 179.051 183.431 179.051H224.506C224.645 179.051 224.755 179.189 224.755 179.361C224.755 179.532 224.645 179.671 224.506 179.671Z" fill="white"/>
<path d="M224.506 172.993H194.617C194.48 172.993 194.369 172.855 194.369 172.683C194.369 172.512 194.48 172.373 194.617 172.373H224.506C224.643 172.373 224.755 172.512 224.755 172.683C224.755 172.855 224.643 172.993 224.506 172.993Z" fill="white"/>
<path d="M190.889 172.993H175.888C175.75 172.993 175.64 172.855 175.64 172.683C175.64 172.512 175.75 172.373 175.888 172.373H190.889C191.026 172.373 191.137 172.512 191.137 172.683C191.137 172.855 191.026 172.993 190.889 172.993Z" fill="white"/>
<path d="M169.519 188.029H120.9C120.763 188.029 120.652 187.891 120.652 187.719C120.652 187.548 120.763 187.409 120.9 187.409H169.519C169.655 187.409 169.766 187.548 169.766 187.719C169.766 187.891 169.655 188.029 169.519 188.029Z" fill="white"/>
<path d="M161.976 202.286H120.9C120.763 202.286 120.652 202.147 120.652 201.976C120.652 201.805 120.763 201.666 120.9 201.666H161.976C162.113 201.666 162.224 201.805 162.224 201.976C162.224 202.147 162.113 202.286 161.976 202.286Z" fill="white"/>
<path d="M150.79 195.609H120.9C120.763 195.609 120.652 195.47 120.652 195.299C120.652 195.127 120.763 194.989 120.9 194.989H150.79C150.927 194.989 151.038 195.127 151.038 195.299C151.038 195.47 150.927 195.609 150.79 195.609Z" fill="white"/>
<path d="M169.519 195.609H154.518C154.381 195.609 154.27 195.47 154.27 195.299C154.27 195.127 154.381 194.989 154.518 194.989H169.519C169.656 194.989 169.767 195.127 169.767 195.299C169.767 195.47 169.656 195.609 169.519 195.609Z" fill="white"/>
<path d="M206.174 130.444L206.19 130.373L213.372 99.1558L213.339 99.1267C213.663 98.3366 214.5 96.6427 216.213 95.1495C219.172 92.5694 219.525 88.2944 219.525 88.2944C221.106 86.3824 222.888 84.751 224.502 82.8836C224.671 82.6884 224.846 82.4753 224.895 82.1951C224.95 81.8826 224.834 81.563 224.691 81.2981C223.857 79.7555 222.326 79.5324 221.053 80.2451C220.308 80.6624 219.641 81.2561 219.015 81.9086C218.72 82.2181 217.708 83.0689 217.4 83.6356L223.111 68.3945C223.619 67.041 223.286 65.4965 222.374 64.9627C221.918 64.6951 221.4 64.7298 220.93 64.9995C220.635 65.1705 220.363 65.4455 220.137 65.7902C220.155 65.678 220.166 65.6122 220.166 65.6122C213.476 58.5825 205.222 82.5099 205.222 82.5099L202.879 89.4175L183.012 135.455C180.202 142.134 182.368 150.394 187.796 153.701C187.874 153.749 187.952 153.791 188.031 153.835C189.624 154.985 191.471 155.645 193.442 155.645H232.542L240.967 130.619L206.174 130.444Z" fill="#FAB892"/>
<path d="M198.785 155.633H199.479V155.607H198.785V155.633Z" fill="#F9AA8B"/>
<path d="M199.806 155.645C199.692 155.641 199.595 155.637 199.504 155.634C199.673 155.64 199.806 155.645 199.806 155.645ZM199.504 155.634C199.498 155.633 199.491 155.633 199.485 155.633C199.491 155.633 199.497 155.633 199.504 155.634Z" fill="#F9AA8B"/>
<path d="M213.868 130.483L213.849 130.482C213.855 130.482 213.862 130.482 213.868 130.482V130.483ZM212.336 130.475L206.174 130.444L206.191 130.373C209.011 130.376 210.035 130.451 212.336 130.475Z" fill="#C4BCE4"/>
<path d="M199.806 155.645C199.806 155.645 200.783 152.253 201.966 147.828C202.248 147.141 202.488 146.414 202.678 145.647L204.053 139.67C204.416 138.166 204.759 136.692 205.053 135.319L206.174 130.444L212.336 130.475C212.785 130.48 213.28 130.483 213.849 130.483L213.868 130.483L199.806 155.645Z" fill="#F9AA8B"/>
<path d="M211.852 85.193C211.801 85.193 211.75 85.1731 211.705 85.1323C211.595 85.0312 211.571 84.8367 211.652 84.699C214.149 80.469 217.504 82.7547 217.537 82.7776C217.655 82.862 217.698 83.0498 217.63 83.1992C217.565 83.3478 217.412 83.4013 217.294 83.3188C217.171 83.2339 214.283 81.2852 212.052 85.0671C212.003 85.1489 211.928 85.193 211.852 85.193Z" fill="#F5786C"/>
<path d="M220.28 65.7299C219.248 67.3531 218.289 69.0607 217.439 70.8358C217.014 71.7247 216.631 72.6421 216.311 73.5829C215.995 74.5169 215.738 75.5209 215.778 76.4679L215.78 76.4872C215.789 76.6578 215.683 76.8038 215.546 76.8133C215.409 76.8224 215.293 76.6912 215.285 76.5206V76.5127C215.258 75.3603 215.562 74.3303 215.901 73.3634C216.25 72.3958 216.655 71.471 217.1 70.5799C217.991 68.7986 218.983 67.1102 220.051 65.4943C220.102 65.4156 220.196 65.4046 220.259 65.4696C220.321 65.5334 220.331 65.6481 220.28 65.7268V65.7299Z" fill="#F5786C"/>
<path d="M218.555 64.8462C217.9 65.409 217.313 66.1546 216.788 66.9288C216.262 67.7116 215.799 68.5601 215.383 69.4413C214.975 70.3289 214.616 71.2519 214.31 72.2019C214.149 72.6725 214.029 73.1639 213.884 73.6424L213.529 75.1144L213.525 75.1318C213.486 75.2954 213.348 75.3885 213.215 75.3388C213.085 75.2893 213.011 75.1162 213.05 74.9526L213.052 74.9472L213.437 73.451C213.592 72.9631 213.723 72.4647 213.896 71.9871C214.225 71.0212 214.606 70.0847 215.038 69.1849C215.479 68.291 215.964 67.4319 216.519 66.6405C217.078 65.8521 217.672 65.1146 218.396 64.5171C218.467 64.4588 218.561 64.483 218.608 64.5717C218.655 64.6591 218.636 64.7769 218.567 64.8358L218.555 64.8462Z" fill="#F5786C"/>
<path d="M215.85 65.0839C214.902 66.326 214.019 67.6678 213.254 69.094C212.876 69.81 212.515 70.5419 212.23 71.3137C211.944 72.0815 211.708 72.8798 211.604 73.6942V73.7016C211.581 73.8709 211.455 73.9861 211.32 73.9596C211.186 73.9323 211.092 73.7735 211.114 73.6045V73.5969C211.247 72.6963 211.518 71.8623 211.83 71.0695C212.144 70.2737 212.532 69.536 212.929 68.8164C213.741 67.3834 214.655 66.0627 215.648 64.8262C215.705 64.7561 215.797 64.7561 215.852 64.8267C215.907 64.8963 215.909 65.0084 215.854 65.0791L215.85 65.0839Z" fill="#F5786C"/>
<path d="M296.416 175.899L286.824 143.224C285.683 136.055 280.226 130.619 273.66 130.619L246.868 130.353L216.684 130.497V155.645H226.052L221.218 221.236L287.682 221.706L287.309 177.291L296.416 175.899Z" fill="#5460B6"/>
<path d="M226.052 155.645H216.684V130.497L245.01 130.362V130.767C234.38 132.074 226.101 142.412 226.101 154.981L226.052 155.645Z" fill="#525DB4"/>
<path d="M210.463 111.795L213.356 99.2245C213.129 100.207 210.561 111.378 210.465 111.792C210.465 111.793 210.465 111.795 210.463 111.795ZM213.356 99.2245V99.2196C213.356 99.2214 213.356 99.2227 213.356 99.2245ZM213.358 99.2115L213.36 99.2089C213.36 99.2097 213.358 99.2109 213.358 99.2115ZM213.364 99.1928V99.1893C213.364 99.1903 213.364 99.1916 213.364 99.1928ZM213.372 99.1556L213.339 99.1266C213.341 99.1253 213.341 99.1248 213.341 99.124L213.372 99.1556Z" fill="#D3C7E8"/>
<path d="M210.461 111.801C210.325 111.8 208.67 94.2422 208.67 94.2422L213.341 99.1243C213.341 99.1251 213.341 99.1256 213.339 99.1269L213.372 99.1559C213.372 99.1559 213.37 99.1654 213.364 99.1827C213.364 99.1852 213.364 99.1875 213.364 99.1896V99.1931C213.362 99.1957 213.362 99.1975 213.362 99.2C213.36 99.2031 213.36 99.2061 213.36 99.2092L213.357 99.2117C213.357 99.213 213.357 99.2143 213.357 99.2161C213.357 99.2173 213.357 99.2186 213.355 99.2199V99.2247L210.463 111.795C210.463 111.799 210.461 111.801 210.461 111.801Z" fill="#F9AA8B"/>
<path d="M248.235 185.286L245.697 169.309L243.741 156.981C243.511 155.532 242.373 154.58 241.212 154.868L231.416 157.297C230.256 157.585 229.495 159.007 229.725 160.457L231.693 172.864L233.256 182.705L234.218 188.762C234.449 190.212 235.585 191.163 236.746 190.874L242.534 189.44L246.544 188.445C247.704 188.158 248.465 186.736 248.235 185.286Z" fill="#1C1B21"/>
<path d="M300.385 200.011L295.967 175.967L275.879 179.038L276.983 185.155L276.881 185.123L255.045 178.367L255.027 178.4C254.423 178.023 253.291 177.123 252.296 175.264C250.464 171.844 247.388 171.75 247.388 171.75C246.797 170.974 246.244 170.145 245.697 169.308L246.209 172.531L246.081 172.615C244.694 173.535 243.128 173.942 241.561 173.79C238.663 173.507 233.927 173.044 231.959 172.853C231.359 172.794 230.782 173.194 230.523 173.874C227.712 181.256 239.781 188.011 242.534 189.44H242.532L242.63 189.49L242.742 189.547L242.848 189.601L242.936 189.645L243.017 189.685L243.05 189.7L243.091 189.721L247.813 191.933L285.198 214.931C285.545 215.139 285.896 215.32 286.251 215.478C288.064 216.515 290.15 216.853 292.243 216.252C298.08 214.577 301.725 207.305 300.385 200.011Z" fill="#FAB892"/>
<path d="M276.983 185.155L276.881 185.123C276.283 181.828 276.561 182.872 276.108 180.3L276.983 185.155Z" fill="#6461B6"/>
<path d="M298.961 192.259C298.87 192.219 285.076 186.168 278.451 185.609L276.881 185.123L276.983 185.155L276.108 180.3C276.046 179.956 275.973 179.547 275.883 179.054L275.902 179.052L298.961 192.259Z" fill="#F9AA8B"/>
<path d="M274.015 179.349C273.899 179.349 273.797 179.247 273.772 179.102L270.888 161.643C270.86 161.475 270.947 161.312 271.08 161.277C271.098 161.272 271.115 161.27 271.133 161.27C271.245 161.27 271.349 161.372 271.374 161.518L274.213 178.695L283.925 177.15C283.935 177.148 283.948 177.147 283.958 177.147C284.078 177.147 284.186 177.263 284.203 177.419C284.219 177.589 284.123 177.743 283.988 177.766L278.492 178.64L275.879 179.039L275.881 179.054L274.048 179.346L274.015 179.349Z" fill="#424AA7"/>
<path d="M275.883 179.054L275.879 179.039C275.881 179.044 275.881 179.05 275.883 179.054ZM275.902 179.052L275.879 179.039L278.494 178.64L275.902 179.052Z" fill="#AB806B"/>
<path d="M275.883 179.053C275.881 179.049 275.881 179.044 275.879 179.039L275.902 179.051L275.883 179.053Z" fill="#AB7667"/>
<path d="M299.157 193.5C299.153 193.475 299.141 193.397 299.119 193.253C299.137 193.372 299.153 193.466 299.157 193.5Z" fill="#F9AA8B"/>
<path d="M298.964 192.274C298.964 192.269 298.964 192.264 298.961 192.26C298.961 192.261 298.964 192.265 298.964 192.274Z" fill="#FDE9EC"/>
<path d="M299.065 192.922C299.039 192.749 299.006 192.544 298.963 192.275C298.976 192.347 299.023 192.639 299.065 192.922Z" fill="#F9AA8B"/>
<path d="M299.118 193.253C299.104 193.163 299.088 193.061 299.072 192.954C299.09 193.075 299.106 193.176 299.118 193.253ZM299.072 192.954C299.069 192.943 299.067 192.933 299.065 192.922C299.067 192.932 299.069 192.943 299.072 192.954Z" fill="#F9AA8B"/>
<path d="M271.741 65.8888C271.129 60.6248 267.286 56.8793 263.028 57.4811C261.898 57.6409 260.851 58.0964 259.93 58.7704C258.559 55.9675 255.979 54.2507 253.195 54.6443C251.604 54.8686 250.205 55.7518 249.136 57.0434C247.6 56.0809 245.834 55.6384 243.998 55.8982C238.954 56.6109 235.328 62.2982 235.899 68.6009C236.166 71.5486 237.306 74.1053 238.956 75.9227L237.088 88.3918C236.552 91.9711 238.44 95.4158 241.304 96.0865L263.434 101.264C266.299 101.934 269.055 99.5753 269.591 95.996L273.217 71.791C273.552 69.5573 272.942 67.3756 271.741 65.8888Z" fill="#1C1B21"/>
<path d="M239.485 72.7063C239.403 72.7063 239.323 72.6556 239.275 72.562C235.322 64.7439 240.768 59.731 240.823 59.6813C240.935 59.5809 241.088 59.6138 241.169 59.7527C241.247 59.8909 241.222 60.0843 241.112 60.184C240.902 60.3742 235.995 64.9137 239.695 72.2309C239.768 72.376 239.733 72.5677 239.617 72.6587C239.576 72.691 239.529 72.7063 239.485 72.7063Z" fill="#FCF2E3"/>
<path d="M268.161 90.3323L267.676 90.2196L262.791 77.0965C261.59 76.8796 260.462 76.3254 259.487 75.4993C258.549 76.7674 257.26 77.6412 255.779 77.8507C253.998 78.1023 252.316 77.3407 251.088 75.94C249.725 77.436 248 78.4487 246.062 78.7228C243.847 79.0365 241.726 78.3356 239.995 76.9173L236.593 99.6354C236.123 102.774 236.639 105.851 237.853 108.392C239.062 112.13 241.663 115.066 245.01 116.029V131.031C245.01 136.243 248.422 140.507 252.591 140.507H254.984C259.152 140.507 262.565 136.243 262.565 131.031V113.996C263.795 112.308 264.684 110.195 265.045 107.786L265.667 103.638L266.15 103.751C269.024 104.423 271.814 102.035 272.351 98.4455L272.406 98.0815C272.944 94.4918 271.033 91.0047 268.161 90.3323Z" fill="#FAB892"/>
<path d="M245.01 116.046C241.667 115.085 239.075 112.144 237.861 108.414C239.073 112.142 241.671 115.068 245.01 116.029V116.046ZM262.565 114.009V113.996C263.795 112.308 264.684 110.195 265.045 107.786L265.667 103.638L265.045 107.786C264.684 110.198 263.799 112.32 262.565 114.009Z" fill="#D9B7D9"/>
<path d="M254.979 121.614H252.556C249.558 121.614 246.958 119.403 245.732 116.225L245.424 116.153C245.285 116.12 245.147 116.085 245.01 116.045V116.029C241.671 115.068 239.073 112.142 237.861 108.414C237.859 108.406 237.857 108.4 237.853 108.392C239.283 111.378 241.681 113.621 244.633 114.311L252.355 116.118C252.981 116.265 253.603 116.335 254.219 116.335C258.967 116.335 263.193 112.116 264.098 106.071L264.541 103.111L265.667 103.638L265.045 107.786C264.684 110.195 263.795 112.308 262.565 113.996V114.009C262.495 114.104 262.426 114.197 262.355 114.289C261.569 118.472 258.557 121.614 254.979 121.614Z" fill="#F89F88"/>
<path d="M268.586 99.2306C268.533 99.2306 268.478 99.2097 268.433 99.1656L266.503 97.2939C266.446 97.2386 266.412 97.1544 266.41 97.064C266.405 96.974 266.434 96.886 266.485 96.8233L268.865 94.0169C268.965 93.8999 269.122 93.9047 269.216 94.0294C269.31 94.154 269.306 94.3498 269.206 94.4675L267.038 97.026L268.739 98.676C268.845 98.7815 268.865 98.976 268.782 99.1111C268.733 99.1898 268.659 99.2306 268.586 99.2306Z" fill="#F5786C"/>
<path d="M256.316 87.6989C255.943 87.6851 255.559 87.4032 255.176 87.157C254.794 86.8992 254.407 86.652 254.062 86.4516C253.717 86.2515 253.318 86.0384 252.914 85.8388C252.516 85.6298 252.094 85.4427 251.851 85.0973C251.615 84.7695 251.661 84.2526 252.216 83.9069C252.744 83.5628 253.819 83.481 254.959 84.1412C256.096 84.8075 256.724 85.8814 256.838 86.6005C256.968 87.3456 256.673 87.7167 256.316 87.6989Z" fill="#1C1B21"/>
<path d="M240.535 85.9995C240.857 86.2207 241.3 86.2503 241.728 86.3074C242.161 86.3538 242.593 86.4127 242.968 86.4784C243.343 86.5442 243.776 86.636 244.2 86.7395C244.624 86.8322 245.061 86.9556 245.412 86.8521C245.75 86.7573 245.93 86.3472 245.605 85.7471C245.303 85.1657 244.427 84.4374 243.182 84.2162C241.938 84.0023 240.955 84.4053 240.553 84.8634C240.129 85.3324 240.225 85.7905 240.535 85.9995Z" fill="#1C1B21"/>
<path d="M252.667 92.9968L252.701 93.0049C253.034 93.0824 253.354 92.8066 253.417 92.3919L253.564 91.41C253.627 90.9956 253.405 90.5926 253.075 90.5151L253.04 90.5072C252.71 90.4297 252.385 90.7055 252.324 91.12L252.177 92.1018C252.114 92.5166 252.336 92.9193 252.667 92.9968Z" fill="#1C1B21"/>
<path d="M241.977 90.8262L242.012 90.8335C242.342 90.911 242.665 90.6352 242.728 90.2213L242.875 89.2394C242.936 88.8247 242.716 88.422 242.383 88.3445L242.351 88.3363C242.02 88.2588 241.696 88.5341 241.635 88.9488L241.488 89.9312C241.425 90.3457 241.647 90.7482 241.977 90.8262Z" fill="#1C1B21"/>
<path d="M255.388 96.8632C255.359 96.8632 255.333 96.8614 255.304 96.8575L253.107 96.5488C252.693 96.4907 252.391 96.0178 252.438 95.4988L252.442 95.4463C252.487 94.9622 252.818 94.6025 253.199 94.6025C253.226 94.6025 253.254 94.6046 253.283 94.6081L255.477 94.9169C255.893 94.9752 256.195 95.4481 256.148 95.9669L256.142 96.0196C256.099 96.5032 255.769 96.8632 255.388 96.8632Z" fill="#F9AA8B"/>
<path d="M240.914 94.0139C240.886 94.0139 240.857 94.0122 240.829 94.0078L238.634 93.6991C238.22 93.641 237.918 93.1687 237.965 92.6499L237.969 92.5972C238.012 92.1136 238.345 91.7529 238.724 91.7529C238.753 91.7529 238.781 91.7547 238.81 91.759L241.004 92.0672C241.42 92.1261 241.72 92.599 241.673 93.1177L241.669 93.1705C241.626 93.654 241.294 94.0139 240.914 94.0139Z" fill="#F9AA8B"/>
<path d="M245.03 107.731C244.955 107.731 244.879 107.687 244.831 107.604C244.749 107.466 244.773 107.272 244.884 107.17C245.924 106.222 247.088 106.754 247.557 107.167C247.67 107.266 247.696 107.458 247.619 107.598C247.539 107.738 247.386 107.771 247.274 107.675C247.229 107.637 246.185 106.751 245.177 107.671C245.132 107.712 245.081 107.731 245.03 107.731Z" fill="#F5786C"/>
<path d="M246.707 98.9212L252.508 97.8855L251.873 100.404C251.465 102.015 250.27 103.111 248.918 103.111C247.866 103.111 246.982 102.12 246.87 100.813L246.707 98.9212Z" fill="white"/>
<path d="M248.206 96.3514L248.145 96.3415L246.346 95.7564C245.583 95.5084 244.969 94.8465 244.657 93.9416C244.347 93.0361 244.39 92.0226 244.771 91.1624L247.511 85.0016C247.578 84.851 247.729 84.7982 247.847 84.8813C247.967 84.9644 248.01 85.1528 247.943 85.3029L245.206 91.4631C244.898 92.1555 244.865 92.9699 245.114 93.6974C245.363 94.4256 245.859 94.9573 246.47 95.1564L248.269 95.7414C248.402 95.785 248.481 95.954 248.447 96.1197C248.418 96.2591 248.318 96.3514 248.206 96.3514Z" fill="#F5786C"/>
<path d="M163.987 140.913L144.12 94.8755L141.777 87.9679C141.777 87.9679 133.524 64.0406 126.834 71.0702C126.834 71.0702 126.845 71.1368 126.862 71.2482C126.635 70.9035 126.364 70.629 126.068 70.4575C125.6 70.1878 125.081 70.1536 124.625 70.4208C123.712 70.955 123.38 72.4995 123.888 73.8525L129.599 89.0936C129.292 88.5269 128.28 87.6766 127.984 87.3674C127.359 86.7146 126.692 86.1209 125.946 85.7031C124.672 84.9909 123.142 85.2135 122.309 86.7561C122.166 87.0215 122.049 87.3406 122.104 87.6531C122.154 87.9333 122.329 88.1471 122.497 88.3416C124.111 90.2098 125.893 91.8412 127.473 93.7524C127.473 93.7524 127.827 98.0274 130.787 100.608C132.499 102.101 133.336 103.795 133.659 104.585L133.628 104.614L140.825 135.903L130.315 136.078V161.104H153.557C155.531 161.104 157.38 160.441 158.974 159.289C159.051 159.246 159.128 159.205 159.204 159.159C164.631 155.852 166.797 147.593 163.987 140.913Z" fill="#FAB892"/>
<path d="M133.164 136.03C133.168 136.03 133.172 136.03 133.175 136.03H133.164ZM135.711 135.988C137.322 135.93 138.335 135.833 140.808 135.831L140.825 135.903L135.711 135.988Z" fill="#C4BCE4"/>
<path d="M147.194 161.104L133.164 136.03H133.175C134.234 136.03 135.026 136.012 135.711 135.988L140.825 135.903L140.808 135.831C140.827 135.831 140.846 135.831 140.865 135.831C141.793 142.944 147.194 161.104 147.194 161.104ZM147.194 161.104C147.194 161.104 147.197 161.104 147.205 161.103C147.202 161.103 147.197 161.104 147.194 161.104ZM147.205 161.103H147.205H147.205ZM147.205 161.103C147.206 161.103 147.207 161.103 147.208 161.103C147.207 161.103 147.206 161.103 147.205 161.103ZM147.208 161.103H147.208H147.208ZM147.208 161.103C147.212 161.103 147.215 161.103 147.219 161.103C147.215 161.103 147.212 161.103 147.208 161.103ZM147.219 161.103C147.219 161.103 147.219 161.103 147.22 161.103C147.219 161.103 147.219 161.103 147.219 161.103ZM147.22 161.103C147.221 161.103 147.222 161.103 147.223 161.103C147.222 161.103 147.221 161.103 147.22 161.103ZM147.223 161.103C147.223 161.103 147.223 161.103 147.224 161.103C147.223 161.103 147.223 161.103 147.223 161.103ZM147.224 161.103C147.227 161.103 147.231 161.102 147.236 161.102C147.232 161.102 147.228 161.103 147.224 161.103ZM147.236 161.102C147.238 161.102 147.239 161.102 147.241 161.102C147.239 161.102 147.237 161.102 147.236 161.102ZM147.241 161.102C147.241 161.102 147.242 161.102 147.243 161.102C147.242 161.102 147.241 161.102 147.241 161.102ZM147.243 161.102C147.243 161.102 147.243 161.102 147.243 161.102C147.243 161.102 147.243 161.102 147.243 161.102ZM147.243 161.102C147.245 161.102 147.247 161.102 147.249 161.101C147.247 161.102 147.245 161.102 147.243 161.102ZM147.249 161.101H147.249H147.249ZM147.249 161.101C147.257 161.101 147.265 161.101 147.274 161.101C147.266 161.101 147.258 161.101 147.249 161.101ZM147.274 161.101H147.274H147.274ZM147.274 161.101C147.275 161.101 147.276 161.101 147.277 161.101C147.276 161.101 147.275 161.101 147.274 161.101ZM147.277 161.101C147.278 161.101 147.277 161.101 147.278 161.101H147.277ZM147.278 161.101C147.279 161.101 147.28 161.1 147.28 161.1C147.28 161.1 147.279 161.101 147.278 161.101ZM147.28 161.1C147.281 161.1 147.281 161.1 147.282 161.1C147.281 161.1 147.281 161.1 147.28 161.1ZM147.282 161.1C147.282 161.1 147.283 161.1 147.284 161.1C147.283 161.1 147.282 161.1 147.282 161.1ZM147.284 161.1C147.284 161.1 147.285 161.1 147.285 161.1C147.285 161.1 147.284 161.1 147.284 161.1ZM147.285 161.1C147.286 161.1 147.287 161.1 147.288 161.1C147.287 161.1 147.286 161.1 147.285 161.1ZM147.288 161.1C147.288 161.1 147.289 161.1 147.289 161.1C147.289 161.1 147.288 161.1 147.288 161.1ZM147.289 161.1C147.296 161.099 147.304 161.099 147.311 161.099C147.304 161.099 147.297 161.099 147.289 161.1ZM147.311 161.099C147.311 161.099 147.311 161.099 147.312 161.099C147.311 161.099 147.311 161.099 147.311 161.099ZM147.312 161.099C147.313 161.099 147.315 161.099 147.316 161.099C147.315 161.099 147.313 161.099 147.312 161.099ZM147.316 161.099C147.32 161.099 147.322 161.099 147.326 161.099C147.322 161.099 147.319 161.099 147.316 161.099ZM147.326 161.099C147.326 161.099 147.326 161.099 147.326 161.099C147.326 161.099 147.326 161.099 147.326 161.099ZM147.326 161.099C147.327 161.099 147.327 161.099 147.328 161.099C147.327 161.099 147.327 161.099 147.326 161.099ZM147.328 161.099C147.33 161.098 147.333 161.098 147.335 161.098C147.333 161.098 147.33 161.098 147.328 161.099ZM147.335 161.098C147.355 161.097 147.375 161.097 147.393 161.096C147.373 161.097 147.353 161.097 147.335 161.098ZM147.393 161.096C147.394 161.096 147.394 161.096 147.394 161.096C147.394 161.096 147.394 161.096 147.393 161.096ZM147.394 161.096C147.409 161.096 147.424 161.095 147.439 161.094C147.423 161.095 147.408 161.096 147.394 161.096ZM147.439 161.094C147.44 161.094 147.44 161.094 147.441 161.094C147.44 161.094 147.44 161.094 147.439 161.094ZM147.441 161.094C147.442 161.094 147.442 161.094 147.442 161.094C147.442 161.094 147.441 161.094 147.441 161.094ZM147.442 161.094C147.445 161.094 147.448 161.094 147.451 161.094C147.448 161.094 147.445 161.094 147.442 161.094ZM147.451 161.094C147.451 161.094 147.452 161.094 147.453 161.094C147.452 161.094 147.451 161.094 147.451 161.094ZM147.453 161.094C147.456 161.094 147.459 161.093 147.462 161.093C147.459 161.093 147.456 161.094 147.453 161.094ZM147.462 161.093C147.471 161.093 147.479 161.093 147.487 161.093C147.478 161.093 147.47 161.093 147.462 161.093ZM147.487 161.093C147.487 161.093 147.488 161.093 147.489 161.093C147.488 161.093 147.488 161.093 147.487 161.093ZM147.489 161.093C147.496 161.092 147.503 161.092 147.509 161.091C147.503 161.092 147.496 161.092 147.489 161.093ZM147.509 161.091C147.51 161.091 147.51 161.091 147.51 161.091C147.51 161.091 147.51 161.091 147.509 161.091ZM147.51 161.091C147.512 161.091 147.513 161.091 147.514 161.091C147.513 161.091 147.512 161.091 147.51 161.091ZM147.514 161.091C147.515 161.091 147.515 161.091 147.515 161.091C147.515 161.091 147.515 161.091 147.514 161.091ZM147.515 161.091C147.534 161.091 147.553 161.09 147.571 161.09C147.552 161.09 147.533 161.091 147.515 161.091ZM147.571 161.09C147.572 161.09 147.573 161.089 147.574 161.089C147.573 161.089 147.572 161.09 147.571 161.09ZM147.574 161.089C147.575 161.089 147.576 161.089 147.577 161.089C147.576 161.089 147.575 161.089 147.574 161.089ZM147.577 161.089C147.578 161.089 147.579 161.089 147.58 161.089C147.579 161.089 147.578 161.089 147.577 161.089ZM147.58 161.089C147.585 161.089 147.59 161.088 147.596 161.088C147.59 161.088 147.585 161.089 147.58 161.089ZM147.596 161.088C147.62 161.088 147.644 161.086 147.667 161.086C147.643 161.086 147.619 161.088 147.596 161.088ZM147.667 161.086H147.667H147.667ZM147.667 161.086C147.669 161.086 147.671 161.085 147.672 161.085C147.671 161.085 147.669 161.086 147.667 161.086ZM147.672 161.085C147.673 161.085 147.674 161.085 147.674 161.085C147.674 161.085 147.673 161.085 147.672 161.085ZM147.674 161.085C148.073 161.07 148.218 161.065 148.218 161.065C148.218 161.065 147.94 161.075 147.674 161.085Z" fill="#F9AA8B"/>
<path d="M135.148 90.651C135.072 90.651 134.996 90.6077 134.948 90.5251C132.717 86.7431 129.828 88.6919 129.706 88.7768C129.587 88.8599 129.436 88.8071 129.369 88.6577C129.302 88.5083 129.345 88.32 129.464 88.2364C129.498 88.2127 132.852 85.9287 135.347 90.157C135.428 90.2947 135.405 90.4892 135.294 90.5904C135.25 90.6312 135.199 90.651 135.148 90.651Z" fill="#F5786C"/>
<path d="M126.938 70.9388C127.541 71.69 128.088 72.4876 128.609 73.3188C129.127 74.1511 129.612 75.0183 130.046 75.9275C130.473 76.8416 130.854 77.7944 131.157 78.7934C131.444 79.7994 131.647 80.8499 131.715 81.9327C131.726 82.1038 131.624 82.2531 131.488 82.2661C131.351 82.2799 131.231 82.1522 131.221 81.9817L131.22 81.9773L131.22 81.9638C131.172 80.9547 130.997 79.9537 130.737 78.9807C130.462 78.0136 130.107 77.0791 129.704 76.176C129.294 75.2767 128.831 74.4134 128.335 73.5809C127.836 72.7522 127.303 71.9447 126.731 71.2021L126.728 71.1978C126.671 71.1241 126.673 71.0069 126.732 70.9363C126.79 70.8662 126.881 70.8682 126.938 70.9388Z" fill="#F5786C"/>
<path d="M128.615 69.7463C129.423 70.2696 130.016 71.0473 130.571 71.8655C131.115 72.6917 131.589 73.5854 131.996 74.5206C132.417 75.4479 132.764 76.4199 133.095 77.3989L133.546 78.8891L133.947 80.4002C133.99 80.563 133.919 80.7379 133.789 80.7919C133.659 80.8457 133.519 80.7578 133.476 80.5954L133.475 80.5911L133.471 80.5773L133.1 79.0805L132.678 77.6059C132.368 76.6378 132.041 75.6761 131.643 74.7612C131.259 73.8369 130.81 72.957 130.296 72.1457C129.784 71.3486 129.183 70.5663 128.495 70.1016L128.472 70.0853C128.397 70.0351 128.369 69.9186 128.41 69.8258C128.449 69.7341 128.541 69.6986 128.615 69.7463Z" fill="#F5786C"/>
<path d="M131.339 70.2712C131.896 70.8328 132.388 71.4545 132.853 72.1165C133.318 72.7772 133.746 73.4794 134.128 74.2199C134.512 74.9576 134.86 75.7287 135.148 76.5357C135.453 77.3346 135.676 78.1768 135.88 79.0253C135.919 79.1895 135.845 79.3626 135.714 79.4115C135.583 79.4605 135.444 79.3674 135.405 79.2038L135.404 79.1982L135.4 79.1821C135.22 78.3616 135.022 77.5416 134.742 76.7605C134.479 75.9709 134.156 75.2123 133.796 74.4827C133.439 73.7501 133.036 73.0522 132.595 72.3936C132.156 71.7352 131.677 71.103 131.161 70.5565L131.155 70.5496C131.094 70.4851 131.087 70.3712 131.138 70.295C131.189 70.2205 131.278 70.2101 131.339 70.2712Z" fill="#F5786C"/>
<path d="M133.671 104.8C133.518 104.358 133.36 103.959 133.199 103.622C133.409 104.008 133.559 104.34 133.659 104.585L133.628 104.614L133.671 104.8ZM132.737 102.849C132.736 102.848 132.734 102.846 132.733 102.845H132.734C132.735 102.846 132.736 102.848 132.737 102.849Z" fill="#D3C7E8"/>
<path d="M135.663 113.462C135.663 113.462 134.786 108.011 133.671 104.8L133.628 104.614L133.659 104.585C133.559 104.34 133.409 104.008 133.2 103.622C133.047 103.303 132.893 103.039 132.737 102.849C132.736 102.847 132.735 102.846 132.734 102.845L140.411 101.66L135.663 113.462Z" fill="#F9AA8B"/>
<path d="M101.882 136.078L101.883 136.088C101.764 136.085 101.647 136.078 101.528 136.078H77.2688C72.0016 136.078 67.5094 140.211 65.7484 146.022L65.7457 146.021L65.7092 146.147L65.6913 146.208L55.374 181.357L64.9519 182.821V221.856H117.08L120.978 161.103H130.046V135.955L101.882 136.078Z" fill="white"/>
<path d="M130.315 161.103H121.248H130.046V135.956L130.315 135.955V136.078V161.103Z" fill="#B2C2E8"/>
<path d="M130.046 161.104H121.247L121.29 160.44C121.29 147.331 113.004 136.645 102.621 136.104L102.621 136.1L130.046 135.957V161.104Z" fill="#F6F6F7"/>
<path d="M120.643 162.755L110.845 160.326C109.685 160.038 108.548 160.99 108.317 162.439L106.36 174.767L103.824 190.744C103.593 192.194 104.355 193.616 105.514 193.904L109.525 194.898L115.312 196.333C116.473 196.621 117.61 195.669 117.84 194.22L118.802 188.163L120.364 178.322L122.334 165.915C122.564 164.465 121.803 163.044 120.643 162.755Z" fill="#1C1B21"/>
<path d="M121.669 179.207C121.547 178.886 121.353 178.632 121.121 178.454C121.079 178.378 121.045 178.301 121 178.223C121 178.223 120.912 178.237 120.766 178.26C120.596 178.198 120.415 178.168 120.233 178.186C118.265 178.378 113.529 178.84 110.631 179.122C109.065 179.276 107.499 178.868 106.111 177.949L105.879 177.795L106.36 174.767C105.842 175.561 105.315 176.345 104.757 177.086C104.474 177.106 102.857 177.285 101.346 178.694C100.785 179.188 100.233 179.844 99.7624 180.722C99.1723 181.824 98.535 182.585 97.9875 183.105C97.6671 183.393 97.382 183.599 97.1668 183.734L97.1478 183.7L75.3099 190.457L75.2098 190.488L76.3183 184.343L56.225 181.3L51.8073 205.344C50.4669 212.639 54.1118 219.91 59.9485 221.585C62.0424 222.186 64.1287 221.849 65.9415 220.811C66.2959 220.654 66.6472 220.472 66.9943 220.265L103.957 197.526L108.968 195.179C108.968 195.179 109.171 195.082 109.525 194.898L109.451 194.88C111.738 193.716 124.556 186.792 121.669 179.207Z" fill="#FAB892"/>
<path d="M52.9043 198.939C52.9088 198.907 52.9186 198.845 52.9345 198.748C52.9206 198.834 52.9102 198.901 52.9043 198.939ZM52.9345 198.748C52.9369 198.729 52.9404 198.71 52.9435 198.69C52.9404 198.71 52.9369 198.73 52.9345 198.748Z" fill="#D3C7E8"/>
<path d="M53.0972 197.718L53.2222 197.646L53.2171 197.673C53.1384 197.702 53.0972 197.718 53.0972 197.718Z" fill="#D3C7E8"/>
<path d="M53.2173 197.673L53.2222 197.646L76.1492 184.488L76.1794 184.492C75.498 188.203 75.6275 187.985 75.1761 190.581L59.4417 195.45C59.1337 195.553 58.8351 195.677 58.542 195.811C55.8086 196.717 53.7262 197.483 53.2173 197.673Z" fill="#F9AA8B"/>
<path d="M52.9434 198.69C52.9603 198.584 52.9797 198.46 52.9995 198.335C52.9766 198.48 52.9578 198.599 52.9434 198.69Z" fill="#D3C7E8"/>
<path d="M52.9995 198.335C53.0485 198.024 53.0972 197.718 53.0972 197.718C53.057 197.972 53.0262 198.166 52.9995 198.335Z" fill="#D3C7E8"/>
<path d="M78.0432 184.778L78.0124 184.775L76.2879 184.509L76.3183 184.343L73.429 183.906C73.4141 183.859 73.4082 183.807 73.4135 183.754C73.429 183.597 73.5371 183.482 73.6581 183.482C73.6685 183.482 73.6795 183.482 73.6899 183.484L77.8347 184.123L80.143 165.719C80.1623 165.564 80.2684 165.457 80.3899 165.457C80.4018 165.457 80.4142 165.458 80.4267 165.46C80.5615 165.487 80.6543 165.646 80.6329 165.814L78.2881 184.515C78.2688 184.668 78.1637 184.778 78.0432 184.778Z" fill="#ADACB0"/>
<path d="M76.2878 184.509L76.1787 184.492C76.1801 184.484 76.1818 184.476 76.1832 184.467L76.1485 184.487L73.629 184.099C73.5358 184.085 73.4609 184.008 73.4287 183.905L76.318 184.343L76.2878 184.509Z" fill="#AB806B"/>
<path d="M76.1791 184.492L76.1489 184.487L76.1836 184.468C76.182 184.475 76.1805 184.484 76.1791 184.492Z" fill="#AB7667"/>
<path d="M83.1641 188.007L87.931 186.552L83.2365 188.004L83.1641 188.007Z" fill="#FEF6F8"/>
<path d="M83.2368 188.004L87.9313 186.552L97.5048 183.631C97.8236 185.769 95.2786 187.726 93.4366 187.726C93.3077 187.726 93.1817 187.716 93.0607 187.697L83.2368 188.004Z" fill="#F9B08E"/>
<path d="M114.386 128.161L111.02 99.5325C110.652 96.3959 109.922 93.4388 108.9 90.7078L110.727 90.341C110.727 90.341 109.444 67.1047 88.5918 72.6526C86.5381 72.3872 84.4249 72.4319 82.2884 72.8242C72.158 74.6842 65.152 86.4555 66.6409 99.116L68.6028 115.804C70.0911 128.465 79.5097 137.22 89.6402 135.36L112.611 131.142C113.76 130.931 114.555 129.596 114.386 128.161Z" fill="#1C1B21"/>
<path d="M100.553 89.4299C100.431 89.4299 100.324 89.317 100.307 89.162C100.289 88.9922 100.383 88.836 100.519 88.8125L107.225 87.6678C107.278 87.6591 107.327 87.6224 107.359 87.5668C107.377 87.5362 107.405 87.4725 107.393 87.3902C106.309 79.8359 100.741 76.3509 100.685 76.3167C100.562 76.2418 100.511 76.0557 100.571 75.902C100.631 75.7483 100.781 75.6846 100.903 75.76C100.961 75.7954 106.752 79.4102 107.881 87.2803C107.914 87.5097 107.871 87.7409 107.76 87.9311C107.649 88.1228 107.479 88.2502 107.292 88.2826L100.586 89.4266L100.553 89.4299Z" fill="#FCF2E3"/>
<path d="M107.012 91.0866L88.6571 94.7727L84.202 86.5378C85.0768 95.7258 79.6563 101.66 79.6563 101.66C79.6563 101.66 79.6009 101.566 79.5046 101.392L79.3522 101.427C76.4799 102.099 74.5696 105.586 75.1072 109.175C75.6447 112.766 78.4348 115.153 81.3072 114.481L81.6584 114.399C82.2858 117.842 83.7006 120.823 85.6303 123.088V137.791C85.6303 143.002 89.0423 147.266 93.2121 147.266C97.3824 147.266 100.794 143.002 100.794 137.791V126.18C103.814 124.443 106.179 121.408 107.529 117.74L107.537 117.723C109.178 114.288 109.864 110.123 109.229 105.881L107.012 91.0866Z" fill="#FAB892"/>
<path d="M85.6298 123.089C83.723 120.851 82.3088 117.918 81.67 114.528C81.6683 114.519 81.6704 114.509 81.6763 114.499C82.3126 117.899 83.7191 120.845 85.6298 123.088V123.089ZM105.688 121.431C106.421 120.306 107.04 119.066 107.526 117.745C107.53 117.738 107.533 117.731 107.537 117.723C107.048 119.053 106.426 120.3 105.688 121.431Z" fill="#5E343B"/>
<path d="M93.2116 131.733C89.2774 131.733 86.0216 127.936 85.6655 123.13C85.6537 123.117 85.6418 123.103 85.6298 123.089V123.088C83.7191 120.845 82.3126 117.899 81.6763 114.499C81.7448 114.377 82.324 114.19 82.6632 114.19C82.7931 114.19 82.8878 114.217 82.9057 114.286C84.7277 121.3 89.9876 126.027 95.8337 126.027C96.6638 126.027 97.5069 125.931 98.3529 125.733C102.342 124.799 105.593 121.779 107.526 117.745C107.04 119.066 106.421 120.306 105.688 121.431C104.196 123.719 102.228 125.538 99.9279 126.628C98.6579 129.654 96.1218 131.733 93.2116 131.733Z" fill="#F89F88"/>
<path d="M78.7965 110.125C78.7225 110.125 78.6497 110.084 78.6005 110.006C78.5167 109.87 78.5361 109.676 78.6442 109.57L80.2936 107.971L78.1885 105.489C78.0892 105.372 78.0843 105.175 78.1785 105.051C78.2728 104.927 78.4294 104.921 78.5291 105.039L80.8441 107.769C80.8967 107.831 80.9251 107.919 80.922 108.009C80.9181 108.1 80.8832 108.184 80.8263 108.239L78.9487 110.06C78.903 110.104 78.8496 110.125 78.7965 110.125Z" fill="#F5786C"/>
<path d="M92.0036 98.8262C92.225 98.8188 92.4526 98.6508 92.6802 98.505C92.9064 98.3521 93.1369 98.205 93.3409 98.0862C93.545 97.9672 93.7837 97.8407 94.0231 97.7222C94.2587 97.5983 94.5092 97.4874 94.6536 97.2822C94.7943 97.0875 94.7666 96.7808 94.4374 96.5748C94.1239 96.3709 93.4851 96.3227 92.8081 96.7143C92.1342 97.1099 91.7611 97.7477 91.6922 98.1747C91.6153 98.6167 91.7915 98.8367 92.0036 98.8262Z" fill="#1C1B21"/>
<path d="M105.16 95.9671C104.945 96.0354 104.689 95.9536 104.438 95.8916C104.187 95.8228 103.933 95.7614 103.71 95.718C103.488 95.674 103.231 95.635 102.974 95.6041C102.721 95.5661 102.456 95.5457 102.271 95.3989C102.093 95.26 102.051 94.9556 102.322 94.6447C102.579 94.3403 103.182 94.0732 103.919 94.2157C104.655 94.3625 105.154 94.8466 105.314 95.2327C105.486 95.6314 105.366 95.9039 105.16 95.9671Z" fill="#1C1B21"/>
<path d="M97.7274 111.65C95.6924 111.65 94.3351 109.655 94.3184 109.629C94.2311 109.497 94.2454 109.302 94.3506 109.192C94.4556 109.084 94.6119 109.1 94.6992 109.232C94.7785 109.35 96.66 112.097 99.2891 110.58C99.4135 110.507 99.5607 110.576 99.6183 110.731C99.6758 110.887 99.6213 111.071 99.4969 111.143C98.8671 111.506 98.2723 111.65 97.7274 111.65Z" fill="#F5786C"/>
<path d="M99.2077 107.324C99.0912 107.324 98.9874 107.221 98.9641 107.074C98.9378 106.906 99.0257 106.743 99.1601 106.71L100.904 106.281C101.988 106.014 102.696 104.696 102.482 103.341C102.405 102.852 102.024 102.534 101.633 102.629C100.716 102.852 99.8246 102.106 99.6441 100.961L99.223 98.2868C99.1968 98.1188 99.2841 97.956 99.4183 97.9231C99.5528 97.8902 99.6837 97.9993 99.71 98.1673L100.131 100.84C100.258 101.651 100.89 102.179 101.537 102.02C101.858 101.943 102.182 102.024 102.452 102.25C102.723 102.477 102.906 102.822 102.969 103.221C103.235 104.911 102.352 106.556 100.999 106.889L99.2558 107.318L99.2077 107.324Z" fill="#F5786C"/>
<path d="M94.2672 104.056C93.9354 104.133 93.6131 103.858 93.5511 103.443L93.4143 102.529C93.3523 102.114 93.5725 101.711 93.9042 101.634C94.236 101.556 94.5583 101.831 94.6203 102.246L94.7577 103.161C94.8197 103.575 94.5991 103.978 94.2672 104.056Z" fill="#1C1B21"/>
<path d="M104.667 101.943C104.335 102.022 104.013 101.746 103.951 101.331L103.814 100.416C103.751 100.002 103.972 99.5993 104.304 99.5213C104.636 99.4439 104.958 99.7197 105.02 100.134L105.157 101.048C105.219 101.463 104.998 101.866 104.667 101.943Z" fill="#1C1B21"/>
<path d="M91.655 107.811C91.2741 107.811 90.9428 107.45 90.8998 106.967C90.8531 106.448 91.1545 105.975 91.5698 105.917L93.664 105.623C93.6924 105.619 93.7211 105.617 93.7489 105.617C94.1296 105.617 94.4605 105.977 94.5041 106.461C94.5508 106.979 94.2492 107.452 93.8337 107.511L91.7399 107.805C91.7115 107.809 91.6828 107.811 91.655 107.811Z" fill="#F9AA8B"/>
<path d="M105.736 105.039C105.355 105.039 105.024 104.678 104.98 104.195C104.934 103.676 105.235 103.203 105.651 103.145L107.745 102.851C107.774 102.847 107.802 102.845 107.83 102.845C108.21 102.845 108.542 103.205 108.585 103.688C108.632 104.208 108.33 104.68 107.915 104.738L105.821 105.033C105.792 105.037 105.764 105.039 105.736 105.039Z" fill="#F9AA8B"/>
<path d="M101.713 118.395C101.662 118.395 101.611 118.375 101.567 118.335C100.591 117.443 99.5777 118.302 99.5351 118.339C99.4225 118.437 99.2687 118.402 99.1904 118.262C99.1121 118.122 99.1388 117.93 99.2504 117.831C99.7097 117.428 100.846 116.908 101.859 117.835C101.97 117.936 101.994 118.13 101.913 118.268C101.865 118.351 101.789 118.395 101.713 118.395Z" fill="#F5786C"/>
<path d="M174.881 40.5176H171.755C172.242 41.4139 172.558 42.4653 172.701 43.672H175.598L174.881 46.934H172.715C172.505 48.9054 171.874 50.417 170.822 51.4685C169.771 52.508 168.284 53.1294 166.362 53.3326L173.045 63.1004V63.3334H168.929L161.63 52.7053L161.616 49.963H165.244C166.315 49.963 167.161 49.6882 167.782 49.1384C168.413 48.5769 168.834 47.8422 169.044 46.934H161.329L162.06 43.672H168.987C168.518 41.8202 167.251 40.8941 165.186 40.8941H161.329L162.103 37.2378H175.612L174.881 40.5176Z" fill="#1C1B21"/>
<path d="M141.694 26.4352H140.13C140.374 26.8833 140.532 27.4089 140.604 28.0125H142.052L141.694 29.6434H140.611C140.506 30.6291 140.19 31.3849 139.664 31.9107C139.139 32.4305 138.395 32.7409 137.434 32.8427L140.776 37.7266V37.8431H138.718L135.068 32.5289L135.061 31.1578H136.875C137.41 31.1578 137.833 31.0204 138.144 30.7456C138.46 30.4649 138.67 30.0974 138.775 29.6434H134.917L135.283 28.0125H138.747C138.512 27.0865 137.879 26.6233 136.846 26.6233H134.917L135.305 24.7952H142.059L141.694 26.4352Z" fill="#1C1B21"/>
</svg>
